<svg width="25" height="24" viewBox="0 0 25 24" fill="none" xmlns="http://www.w3.org/2000/svg">
<g id="Users" clip-path="url(#clip0_23_2164)">
<path id="Vector" d="M11.7422 14.805C12.7474 14.1358 13.5106 13.1609 13.9188 12.0244C14.3271 10.8879 14.3588 9.65024 14.0092 8.49437C13.6596 7.3385 12.9474 6.32581 11.9778 5.60605C11.0081 4.88629 9.83262 4.49768 8.62505 4.49768C7.41747 4.49768 6.24196 4.88629 5.27233 5.60605C4.30271 6.32581 3.59045 7.3385 3.24088 8.49437C2.89132 9.65024 2.92301 10.8879 3.33126 12.0244C3.73952 13.1609 4.50267 14.1358 5.50786 14.805C3.68957 15.4751 2.13671 16.7152 1.08098 18.3403C1.0255 18.4227 0.986959 18.5154 0.967604 18.6129C0.948249 18.7104 0.948466 18.8108 0.968241 18.9082C0.988017 19.0056 1.02696 19.0981 1.0828 19.1803C1.13864 19.2625 1.21027 19.3328 1.29352 19.3871C1.37677 19.4414 1.46998 19.4787 1.56774 19.4966C1.6655 19.5146 1.76585 19.5129 1.86297 19.4917C1.96008 19.4706 2.05202 19.4303 2.13344 19.3733C2.21486 19.3163 2.28413 19.2437 2.33723 19.1597C3.01822 18.1123 3.95007 17.2516 5.04814 16.6558C6.14622 16.0599 7.37574 15.7479 8.62505 15.7479C9.87436 15.7479 11.1039 16.0599 12.202 16.6558C13.3 17.2516 14.2319 18.1123 14.9129 19.1597C15.0229 19.3231 15.1928 19.4368 15.3859 19.476C15.579 19.5152 15.7798 19.4768 15.9449 19.3692C16.1099 19.2615 16.226 19.0932 16.2679 18.9007C16.3099 18.7082 16.2744 18.5068 16.1691 18.3403C15.1134 16.7152 13.5605 15.4751 11.7422 14.805ZM4.50005 10.125C4.50005 9.30911 4.74197 8.51159 5.19523 7.83324C5.6485 7.15488 6.29273 6.62617 7.04648 6.31396C7.80022 6.00175 8.62962 5.92006 9.42979 6.07922C10.23 6.23839 10.965 6.63126 11.5419 7.20815C12.1188 7.78504 12.5116 8.52004 12.6708 9.32022C12.8299 10.1204 12.7483 10.9498 12.436 11.7035C12.1238 12.4573 11.5951 13.1015 10.9168 13.5548C10.2384 14.008 9.44089 14.25 8.62505 14.25C7.53141 14.2487 6.48292 13.8137 5.7096 13.0404C4.93628 12.2671 4.50129 11.2186 4.50005 10.125ZM24.2007 19.3781C24.0341 19.4867 23.8312 19.5247 23.6365 19.4838C23.4419 19.4428 23.2715 19.3262 23.1629 19.1597C22.4827 18.1116 21.551 17.2506 20.4527 16.655C19.3544 16.0594 18.1244 15.7483 16.875 15.75C16.6761 15.75 16.4854 15.6709 16.3447 15.5303C16.2041 15.3896 16.125 15.1989 16.125 15C16.125 14.8011 16.2041 14.6103 16.3447 14.4696C16.4854 14.329 16.6761 14.25 16.875 14.25C17.4825 14.2494 18.0824 14.1147 18.6317 13.8554C19.1811 13.5961 19.6664 13.2187 20.053 12.7501C20.4396 12.2815 20.7179 11.7334 20.8681 11.1448C21.0183 10.5561 21.0366 9.94162 20.9218 9.3451C20.8069 8.74859 20.5617 8.1848 20.2037 7.69402C19.8458 7.20325 19.3838 6.7976 18.8508 6.50606C18.3179 6.21452 17.7271 6.04429 17.1208 6.00752C16.5144 5.97076 15.9074 6.06838 15.3432 6.2934C15.2512 6.33317 15.1521 6.3541 15.0519 6.35495C14.9517 6.35579 14.8523 6.33654 14.7596 6.29833C14.667 6.26012 14.5829 6.20373 14.5124 6.13248C14.4419 6.06123 14.3864 5.97658 14.3492 5.88352C14.312 5.79046 14.2938 5.69088 14.2957 5.59067C14.2976 5.49046 14.3196 5.39165 14.3603 5.30007C14.4011 5.2085 14.4598 5.12602 14.5329 5.05752C14.6061 4.98901 14.6922 4.93586 14.7863 4.90121C16.0777 4.3862 17.514 4.36767 18.8182 4.84919C20.1225 5.33071 21.2022 6.27817 21.849 7.50879C22.4959 8.73941 22.6641 10.166 22.3213 11.5133C21.9784 12.8607 21.1487 14.0333 19.9922 14.805C21.8105 15.4751 23.3634 16.7152 24.4191 18.3403C24.5277 18.5069 24.5658 18.7098 24.5248 18.9044C24.4838 19.099 24.3672 19.2694 24.2007 19.3781Z" fill="#CCCCCC"/>
</g>
<defs>
<clipPath id="clip0_23_2164">
<rect width="24" height="24" fill="white" transform="translate(0.75)"/>
</clipPath>
</defs>
</svg>
