<svg width="24" height="24" viewBox="0 0 24 24" fill="none" xmlns="http://www.w3.org/2000/svg">
<g id="solar:user-circle-bold">
<path id="Vector" fill-rule="evenodd" clip-rule="evenodd" d="M23.5 12.5C23.5 18.8514 18.3514 24 12 24C5.64855 24 0.5 18.8514 0.5 12.5C0.5 6.14855 5.64855 1 12 1C18.3514 1 23.5 6.14855 23.5 12.5ZM15.45 9.05C15.45 9.965 15.0865 10.8425 14.4395 11.4895C13.7925 12.1365 12.915 12.5 12 12.5C11.085 12.5 10.2075 12.1365 9.56048 11.4895C8.91348 10.8425 8.55 9.965 8.55 9.05C8.55 8.135 8.91348 7.25748 9.56048 6.61048C10.2075 5.96348 11.085 5.6 12 5.6C12.915 5.6 13.7925 5.96348 14.4395 6.61048C15.0865 7.25748 15.45 8.135 15.45 9.05ZM12 22.275C13.9737 22.2782 15.9017 21.681 17.528 20.5626C18.2226 20.0854 18.5194 19.1769 18.1145 18.4375C17.2785 16.9045 15.5535 15.95 12 15.95C8.4465 15.95 6.7215 16.9045 5.8843 18.4375C5.48065 19.1769 5.77735 20.0854 6.47195 20.5626C8.09828 21.681 10.0263 22.2782 12 22.275Z" fill="#EEEEEE"/>
</g>
</svg>
