<svg width="25" height="24" viewBox="0 0 25 24" fill="none" xmlns="http://www.w3.org/2000/svg">
<g id="Users" clip-path="url(#clip0_19_438)">
<path id="Vector" d="M11.7422 14.8048C12.7474 14.1356 13.5106 13.1607 13.9188 12.0243C14.3271 10.8878 14.3588 9.65012 14.0092 8.49425C13.6596 7.33838 12.9474 6.32569 11.9778 5.60593C11.0081 4.88617 9.83262 4.49756 8.62505 4.49756C7.41747 4.49756 6.24196 4.88617 5.27233 5.60593C4.30271 6.32569 3.59045 7.33838 3.24088 8.49425C2.89132 9.65012 2.92301 10.8878 3.33126 12.0243C3.73952 13.1607 4.50267 14.1356 5.50786 14.8048C3.68957 15.475 2.13671 16.7151 1.08098 18.3402C1.0255 18.4226 0.986959 18.5153 0.967604 18.6128C0.948249 18.7103 0.948466 18.8106 0.968241 18.908C0.988017 19.0055 1.02696 19.098 1.0828 19.1802C1.13864 19.2624 1.21027 19.3327 1.29352 19.387C1.37677 19.4413 1.46998 19.4785 1.56774 19.4965C1.6655 19.5144 1.76585 19.5128 1.86297 19.4916C1.96008 19.4705 2.05202 19.4302 2.13344 19.3732C2.21486 19.3162 2.28413 19.2435 2.33723 19.1595C3.01822 18.1121 3.95007 17.2515 5.04814 16.6556C6.14622 16.0598 7.37574 15.7477 8.62505 15.7477C9.87436 15.7477 11.1039 16.0598 12.202 16.6556C13.3 17.2515 14.2319 18.1121 14.9129 19.1595C15.0229 19.323 15.1928 19.4367 15.3859 19.4759C15.579 19.5151 15.7798 19.4767 15.9449 19.369C16.1099 19.2614 16.226 19.0931 16.2679 18.9006C16.3099 18.708 16.2744 18.5067 16.1691 18.3402C15.1134 16.7151 13.5605 15.475 11.7422 14.8048ZM4.50005 10.1248C4.50005 9.30899 4.74197 8.51147 5.19523 7.83311C5.6485 7.15476 6.29273 6.62605 7.04648 6.31384C7.80022 6.00163 8.62962 5.91994 9.42979 6.0791C10.23 6.23827 10.965 6.63113 11.5419 7.20803C12.1188 7.78492 12.5116 8.51992 12.6708 9.32009C12.8299 10.1203 12.7483 10.9497 12.436 11.7034C12.1238 12.4572 11.5951 13.1014 10.9168 13.5547C10.2384 14.0079 9.44089 14.2498 8.62505 14.2498C7.53141 14.2486 6.48292 13.8136 5.7096 13.0403C4.93628 12.267 4.50129 11.2185 4.50005 10.1248ZM24.2007 19.378C24.0341 19.4866 23.8312 19.5246 23.6365 19.4837C23.4419 19.4427 23.2715 19.3261 23.1629 19.1595C22.4827 18.1115 21.551 17.2505 20.4527 16.6549C19.3544 16.0593 18.1244 15.7482 16.875 15.7498C16.6761 15.7498 16.4854 15.6708 16.3447 15.5302C16.2041 15.3895 16.125 15.1988 16.125 14.9998C16.125 14.8009 16.2041 14.6102 16.3447 14.4695C16.4854 14.3289 16.6761 14.2498 16.875 14.2498C17.4825 14.2493 18.0824 14.1145 18.6317 13.8553C19.1811 13.596 19.6664 13.2186 20.053 12.75C20.4396 12.2814 20.7179 11.7332 20.8681 11.1446C21.0183 10.556 21.0366 9.9415 20.9218 9.34498C20.8069 8.74846 20.5617 8.18468 20.2037 7.6939C19.8458 7.20312 19.3838 6.79747 18.8508 6.50593C18.3179 6.2144 17.7271 6.04416 17.1208 6.0074C16.5144 5.97064 15.9074 6.06826 15.3432 6.29328C15.2512 6.33305 15.1521 6.35398 15.0519 6.35482C14.9517 6.35567 14.8523 6.33642 14.7596 6.29821C14.667 6.26 14.5829 6.2036 14.5124 6.13236C14.4419 6.06111 14.3864 5.97645 14.3492 5.88339C14.312 5.79033 14.2938 5.69076 14.2957 5.59055C14.2976 5.49034 14.3196 5.39152 14.3603 5.29995C14.4011 5.20838 14.4598 5.1259 14.5329 5.0574C14.6061 4.98889 14.6922 4.93574 14.7863 4.90109C16.0777 4.38608 17.514 4.36754 18.8182 4.84907C20.1225 5.33059 21.2022 6.27805 21.849 7.50867C22.4959 8.73929 22.6641 10.1659 22.3213 11.5132C21.9784 12.8605 21.1487 14.0332 19.9922 14.8048C21.8105 15.475 23.3634 16.7151 24.4191 18.3402C24.5277 18.5068 24.5658 18.7097 24.5248 18.9043C24.4838 19.0989 24.3672 19.2693 24.2007 19.378Z" fill="#10C6FF"/>
</g>
<defs>
<clipPath id="clip0_19_438">
<rect width="24" height="24" fill="white" transform="translate(0.75)"/>
</clipPath>
</defs>
</svg>
