<svg width="234" height="255" viewBox="0 0 234 255" fill="none" xmlns="http://www.w3.org/2000/svg">
<path fill-rule="evenodd" clip-rule="evenodd" d="M141.047 63.0485V2.11995e-06L92.5485 0L92.5485 63.0485H29.5V111.547H92.5485L92.5485 175H141.047V111.547H204.5V63.0485H141.047Z" fill="#A0D9F6"/>
<path d="M2.39258 243V207.648H27.0508V215.168H11.6699V221.564H25.4883V229.084H11.6699V243H2.39258ZM41.5039 243.488C33.0566 243.488 27.8809 238.361 27.8809 229.816C27.8809 221.613 33.1055 216.145 41.3086 216.145C49.1699 216.145 54.3945 221.223 54.3945 229.719V231.916H37.0117V232.258C37.0117 234.992 38.7695 236.945 41.6992 236.945C43.7012 236.945 45.3125 236.066 45.8984 234.553H54.3457C53.418 240.021 48.7305 243.488 41.5039 243.488ZM37.0117 226.74H45.8496C45.8008 224.348 43.9453 222.688 41.5039 222.688C39.0381 222.688 37.085 224.372 37.0117 226.74ZM73.9258 216.486V223.176H69.2871V234.504C69.2871 235.773 69.9219 236.262 71.1914 236.311C71.875 236.359 73.2422 236.262 74.2676 236.164V243.049C73.3887 243.195 71.9727 243.391 69.873 243.391C63.4277 243.391 60.0098 240.949 60.0586 235.432V223.176H56.6406V216.486H60.0586V210.139H69.2871V216.486H73.9258ZM76.6113 235.676C76.6113 229.816 80.957 227.57 86.377 227.229L92.5781 226.984V224.836C92.5781 223.371 91.3574 222.541 89.5508 222.541C87.6465 222.541 86.4258 223.371 86.1816 225.031H77.6367C77.9785 220.197 81.8848 216.145 89.6973 216.145C97.0703 216.145 101.807 219.758 101.807 224.885V243H93.1641V239.289H92.9688C91.4062 242.17 88.7695 243.439 85.2539 243.439C80.1758 243.439 76.6113 240.949 76.6113 235.676ZM85.3027 235.139C85.3027 236.701 86.5234 237.531 88.2324 237.531C90.5273 237.531 92.6758 236.066 92.627 233.576V232.16C91.6992 232.185 89.2578 232.282 88.0371 232.404C86.377 232.6 85.3027 233.723 85.3027 235.139ZM115.723 207.648V243H106.494V207.648H115.723ZM143.848 220.783C143.555 217.463 141.309 215.266 137.549 215.266C132.666 215.266 129.883 219.025 129.883 225.324C129.883 231.965 132.715 235.383 137.5 235.383C141.064 235.383 143.359 233.43 143.848 230.305L153.271 230.402C152.783 236.457 147.461 243.488 137.305 243.488C127.588 243.488 120.312 237.043 120.312 225.324C120.312 213.557 127.783 207.16 137.305 207.16C146.094 207.16 152.49 212.092 153.271 220.783H143.848ZM156.592 235.676C156.592 229.816 160.938 227.57 166.357 227.229L172.559 226.984V224.836C172.559 223.371 171.338 222.541 169.531 222.541C167.627 222.541 166.406 223.371 166.162 225.031H157.617C157.959 220.197 161.865 216.145 169.678 216.145C177.051 216.145 181.787 219.758 181.787 224.885V243H173.145V239.289H172.949C171.387 242.17 168.75 243.439 165.234 243.439C160.156 243.439 156.592 240.949 156.592 235.676ZM165.283 235.139C165.283 236.701 166.504 237.531 168.213 237.531C170.508 237.531 172.656 236.066 172.607 233.576V232.16C171.68 232.185 169.238 232.282 168.018 232.404C166.357 232.6 165.283 233.723 165.283 235.139ZM186.475 243V216.486H195.41V221.467H195.703C196.68 217.805 198.877 216.145 201.758 216.145C202.588 216.145 203.418 216.242 204.15 216.438V224.396C203.223 224.055 201.66 223.908 200.684 223.908C197.803 223.908 195.703 225.959 195.703 229.035V243H186.475ZM219.092 243.488C210.645 243.488 205.469 238.361 205.469 229.816C205.469 221.613 210.693 216.145 218.896 216.145C226.758 216.145 231.982 221.223 231.982 229.719V231.916H214.6V232.258C214.6 234.992 216.357 236.945 219.287 236.945C221.289 236.945 222.9 236.066 223.486 234.553H231.934C231.006 240.021 226.318 243.488 219.092 243.488ZM214.6 226.74H223.438C223.389 224.348 221.533 222.688 219.092 222.688C216.626 222.688 214.673 224.372 214.6 226.74Z" fill="#A0D9F6"/>
</svg>
