<svg width="115" height="22" viewBox="0 0 115 22" fill="none" xmlns="http://www.w3.org/2000/svg">
<path fill-rule="evenodd" clip-rule="evenodd" d="M13.2795 8.20551V1H7.50585L7.50585 8.20551H0V13.7482H7.50585L7.50585 21H13.2795V13.7482H20.8333V8.20551H13.2795Z" fill="#A0D9F6"/>
<path d="M25.6947 17.5V4.77344H34.5717V7.48047H29.0345V9.7832H34.0092V12.4902H29.0345V17.5H25.6947ZM39.7748 17.6758C36.7338 17.6758 34.8705 15.8301 34.8705 12.7539C34.8705 9.80078 36.7513 7.83203 39.7045 7.83203C42.5345 7.83203 44.4154 9.66016 44.4154 12.7188V13.5098H38.1576V13.6328C38.1576 14.6172 38.7904 15.3203 39.8451 15.3203C40.5658 15.3203 41.1459 15.0039 41.3568 14.459H44.3978C44.0638 16.4277 42.3763 17.6758 39.7748 17.6758ZM38.1576 11.6465H41.3392C41.3217 10.7852 40.6537 10.1875 39.7748 10.1875C38.8871 10.1875 38.184 10.7939 38.1576 11.6465ZM51.4467 7.95508V10.3633H49.7767V14.4414C49.7767 14.8984 50.0052 15.0742 50.4623 15.0918C50.7084 15.1094 51.2006 15.0742 51.5697 15.0391V17.5176C51.2533 17.5703 50.7435 17.6406 49.9877 17.6406C47.6674 17.6406 46.4369 16.7617 46.4545 14.7754V10.3633H45.224V7.95508H46.4545V5.66992H49.7767V7.95508H51.4467ZM52.4135 14.8633C52.4135 12.7539 53.9779 11.9453 55.9291 11.8223L58.1615 11.7344V10.9609C58.1615 10.4336 57.722 10.1348 57.0717 10.1348C56.3861 10.1348 55.9467 10.4336 55.8588 11.0312H52.7826C52.9056 9.29102 54.3119 7.83203 57.1244 7.83203C59.7787 7.83203 61.4838 9.13281 61.4838 10.9785V17.5H58.3724V16.1641H58.3021C57.7396 17.2012 56.7904 17.6582 55.5248 17.6582C53.6967 17.6582 52.4135 16.7617 52.4135 14.8633ZM55.5424 14.6699C55.5424 15.2324 55.9818 15.5312 56.597 15.5312C57.4232 15.5312 58.1967 15.0039 58.1791 14.1074V13.5977C57.8451 13.6064 56.9662 13.6416 56.5267 13.6855C55.9291 13.7559 55.5424 14.1602 55.5424 14.6699ZM66.4935 4.77344V17.5H63.1713V4.77344H66.4935ZM76.6185 9.50195C76.5131 8.30664 75.7045 7.51562 74.351 7.51562C72.5931 7.51562 71.5912 8.86914 71.5912 11.1367C71.5912 13.5273 72.6107 14.7578 74.3334 14.7578C75.6166 14.7578 76.4427 14.0547 76.6185 12.9297L80.0111 12.9648C79.8353 15.1445 77.9193 17.6758 74.2631 17.6758C70.765 17.6758 68.1459 15.3555 68.1459 11.1367C68.1459 6.90039 70.8353 4.59766 74.2631 4.59766C77.4271 4.59766 79.7299 6.37305 80.0111 9.50195H76.6185ZM81.2064 14.8633C81.2064 12.7539 82.7709 11.9453 84.722 11.8223L86.9545 11.7344V10.9609C86.9545 10.4336 86.515 10.1348 85.8646 10.1348C85.1791 10.1348 84.7396 10.4336 84.6517 11.0312H81.5756C81.6986 9.29102 83.1049 7.83203 85.9174 7.83203C88.5717 7.83203 90.2767 9.13281 90.2767 10.9785V17.5H87.1654V16.1641H87.0951C86.5326 17.2012 85.5834 17.6582 84.3177 17.6582C82.4896 17.6582 81.2064 16.7617 81.2064 14.8633ZM84.3353 14.6699C84.3353 15.2324 84.7748 15.5312 85.39 15.5312C86.2162 15.5312 86.9896 15.0039 86.972 14.1074V13.5977C86.6381 13.6064 85.7592 13.6416 85.3197 13.6855C84.722 13.7559 84.3353 14.1602 84.3353 14.6699ZM91.9642 17.5V7.95508H95.181V9.74805H95.2865C95.6381 8.42969 96.4291 7.83203 97.4662 7.83203C97.765 7.83203 98.0638 7.86719 98.3275 7.9375V10.8027C97.9935 10.6797 97.431 10.627 97.0795 10.627C96.0424 10.627 95.2865 11.3652 95.2865 12.4727V17.5H91.9642ZM103.706 17.6758C100.665 17.6758 98.8021 15.8301 98.8021 12.7539C98.8021 9.80078 100.683 7.83203 103.636 7.83203C106.466 7.83203 108.347 9.66016 108.347 12.7188V13.5098H102.089V13.6328C102.089 14.6172 102.722 15.3203 103.777 15.3203C104.497 15.3203 105.078 15.0039 105.288 14.459H108.329C107.995 16.4277 106.308 17.6758 103.706 17.6758ZM102.089 11.6465H105.271C105.253 10.7852 104.585 10.1875 103.706 10.1875C102.819 10.1875 102.116 10.7939 102.089 11.6465Z" fill="#A0D9F6"/>
</svg>
